<svg width="22" height="25" viewBox="0 0 22 25" fill="none" xmlns="http://www.w3.org/2000/svg">
<path d="M6.25 0C7.11426 0 7.8125 0.698242 7.8125 1.5625V3.125H14.0625V1.5625C14.0625 0.698242 14.7607 0 15.625 0C16.4893 0 17.1875 0.698242 17.1875 1.5625V3.125H19.5312C20.8252 3.125 21.875 4.1748 21.875 5.46875V7.8125H0V5.46875C0 4.1748 1.0498 3.125 2.34375 3.125H4.6875V1.5625C4.6875 0.698242 5.38574 0 6.25 0ZM0 9.375H21.875V22.6562C21.875 23.9502 20.8252 25 19.5312 25H2.34375C1.0498 25 0 23.9502 0 22.6562V9.375ZM3.125 13.2812V14.8438C3.125 15.2734 3.47656 15.625 3.90625 15.625H5.46875C5.89844 15.625 6.25 15.2734 6.25 14.8438V13.2812C6.25 12.8516 5.89844 12.5 5.46875 12.5H3.90625C3.47656 12.5 3.125 12.8516 3.125 13.2812ZM9.375 13.2812V14.8438C9.375 15.2734 9.72656 15.625 10.1562 15.625H11.7188C12.1484 15.625 12.5 15.2734 12.5 14.8438V13.2812C12.5 12.8516 12.1484 12.5 11.7188 12.5H10.1562C9.72656 12.5 9.375 12.8516 9.375 13.2812ZM16.4062 12.5C15.9766 12.5 15.625 12.8516 15.625 13.2812V14.8438C15.625 15.2734 15.9766 15.625 16.4062 15.625H17.9688C18.3984 15.625 18.75 15.2734 18.75 14.8438V13.2812C18.75 12.8516 18.3984 12.5 17.9688 12.5H16.4062ZM3.125 19.5312V21.0938C3.125 21.5234 3.47656 21.875 3.90625 21.875H5.46875C5.89844 21.875 6.25 21.5234 6.25 21.0938V19.5312C6.25 19.1016 5.89844 18.75 5.46875 18.75H3.90625C3.47656 18.75 3.125 19.1016 3.125 19.5312ZM10.1562 18.75C9.72656 18.75 9.375 19.1016 9.375 19.5312V21.0938C9.375 21.5234 9.72656 21.875 10.1562 21.875H11.7188C12.1484 21.875 12.5 21.5234 12.5 21.0938V19.5312C12.5 19.1016 12.1484 18.75 11.7188 18.75H10.1562ZM15.625 19.5312V21.0938C15.625 21.5234 15.9766 21.875 16.4062 21.875H17.9688C18.3984 21.875 18.75 21.5234 18.75 21.0938V19.5312C18.75 19.1016 18.3984 18.75 17.9688 18.75H16.4062C15.9766 18.75 15.625 19.1016 15.625 19.5312Z" fill="#293244"/>
</svg>
