<svg width="29" height="25" viewBox="0 0 29 25" fill="none" xmlns="http://www.w3.org/2000/svg">
<path d="M7.54464 4.76562L6.08817 8.92857H22.4833L21.0268 4.76562C20.7757 4.05134 20.1004 3.57143 19.3415 3.57143H9.22991C8.47098 3.57143 7.79576 4.05134 7.54464 4.76562ZM2.20982 9.19643L4.17411 3.58817C4.92746 1.43973 6.95312 0 9.22991 0H19.3415C21.6183 0 23.644 1.43973 24.3973 3.58817L26.3616 9.19643C27.6563 9.73214 28.5714 11.01 28.5714 12.5V20.5357V23.2143C28.5714 24.202 27.7734 25 26.7857 25H25C24.0123 25 23.2143 24.202 23.2143 23.2143V20.5357H5.35714V23.2143C5.35714 24.202 4.55915 25 3.57143 25H1.78571C0.797991 25 0 24.202 0 23.2143V20.5357V12.5C0 11.01 0.915178 9.73214 2.20982 9.19643ZM7.14286 14.2857C7.14286 13.8121 6.95472 13.3579 6.61983 13.023C6.28495 12.6881 5.83074 12.5 5.35714 12.5C4.88354 12.5 4.42934 12.6881 4.09445 13.023C3.75957 13.3579 3.57143 13.8121 3.57143 14.2857C3.57143 14.7593 3.75957 15.2135 4.09445 15.5484C4.42934 15.8833 4.88354 16.0714 5.35714 16.0714C5.83074 16.0714 6.28495 15.8833 6.61983 15.5484C6.95472 15.2135 7.14286 14.7593 7.14286 14.2857ZM23.2143 16.0714C23.6879 16.0714 24.1421 15.8833 24.477 15.5484C24.8119 15.2135 25 14.7593 25 14.2857C25 13.8121 24.8119 13.3579 24.477 13.023C24.1421 12.6881 23.6879 12.5 23.2143 12.5C22.7407 12.5 22.2865 12.6881 21.9516 13.023C21.6167 13.3579 21.4286 13.8121 21.4286 14.2857C21.4286 14.7593 21.6167 15.2135 21.9516 15.5484C22.2865 15.8833 22.7407 16.0714 23.2143 16.0714Z" fill="#293244"/>
</svg>
