<svg width="25" height="25" viewBox="0 0 25 25" fill="none" xmlns="http://www.w3.org/2000/svg">
<path d="M20.3115 10.1548C20.3115 12.3956 19.584 14.4657 18.3586 16.1451L24.5394 22.3307C25.1496 22.941 25.1496 23.932 24.5394 24.5423C23.9291 25.1526 22.938 25.1526 22.3278 24.5423L16.147 18.3567C14.4676 19.587 12.3976 20.3095 10.1567 20.3095C4.54719 20.3095 0.00195312 15.7643 0.00195312 10.1548C0.00195312 4.54523 4.54719 0 10.1567 0C15.7662 0 20.3115 4.54523 20.3115 10.1548ZM10.1567 17.185C11.0799 17.185 11.9941 17.0031 12.8471 16.6498C13.7 16.2965 14.475 15.7787 15.1278 15.1259C15.7806 14.4731 16.2985 13.6981 16.6518 12.8451C17.0051 11.9922 17.1869 11.078 17.1869 10.1548C17.1869 9.23154 17.0051 8.31736 16.6518 7.46441C16.2985 6.61147 15.7806 5.83646 15.1278 5.18365C14.475 4.53083 13.7 4.01299 12.8471 3.65969C11.9941 3.30638 11.0799 3.12454 10.1567 3.12454C9.23349 3.12454 8.31931 3.30638 7.46637 3.65969C6.61342 4.01299 5.83842 4.53083 5.1856 5.18365C4.53278 5.83646 4.01494 6.61147 3.66164 7.46441C3.30834 8.31736 3.1265 9.23154 3.1265 10.1548C3.1265 11.078 3.30834 11.9922 3.66164 12.8451C4.01494 13.6981 4.53278 14.4731 5.1856 15.1259C5.83842 15.7787 6.61342 16.2965 7.46637 16.6498C8.31931 17.0031 9.23349 17.185 10.1567 17.185Z" fill="white"/>
</svg>
